<svg width="1401" height="500" viewBox="0 0 1401 500" fill="none" xmlns="http://www.w3.org/2000/svg">
<path d="M268.149 494.801V460.757H354.595V494.801H268.149ZM354.595 306.031V311.416H268.149V306.031H354.595ZM268.149 345.838V315.739H354.595V345.838H268.149ZM268.149 359.888V350.161H354.595V359.888H268.149ZM268.149 373.937V364.211H354.595V373.937H268.149ZM268.149 428.335V378.26H354.595V428.335H268.149ZM268.149 442.384V432.658H354.595V442.384H268.149ZM268.149 446.707H354.595V456.434H268.149V446.707ZM264 301.708V499.124H358.745V301.708H264Z" fill="#DEBC7D"/>
<path d="M465.765 494.62H394.879V385.826H408.365V435.179H465.765V494.62ZM376.552 494.62V385.826H390.73V494.62H376.552ZM358.917 494.62V385.826H372.403V494.62H358.917ZM412.514 430.857V381.503H354.768V498.943H372.403H394.879H469.914V430.857H412.514Z" fill="#DEBC7D"/>
<path d="M458.334 453.56H412.341V457.883H458.334V453.56Z" fill="#DEBC7D"/>
<path d="M458.334 472.292H412.341V476.615H458.334V472.292Z" fill="#DEBC7D"/>
<path d="M552.211 494.62H469.914V333.95H552.211V494.62ZM520.744 329.627H501.38V179.404H520.744V329.627ZM481.671 163.553H540.454V329.627H524.894V175.081H497.231V329.627H481.671V163.553ZM544.603 329.627V159.23H477.521V329.627H465.765V498.943H556.36V329.627H544.603Z" fill="#DEBC7D"/>
<path d="M506.222 343.316H475.792V347.639H506.222V343.316Z" fill="#DEBC7D"/>
<path d="M515.904 347.639H546.333V343.316H515.904V347.639Z" fill="#DEBC7D"/>
<path d="M515.903 365.292H475.792V369.615H546.332V365.292H528.006H515.903Z" fill="#DEBC7D"/>
<path d="M506.222 387.267H475.792V391.59H506.222V387.267Z" fill="#DEBC7D"/>
<path d="M515.904 391.59H546.333V387.267H515.904V391.59Z" fill="#DEBC7D"/>
<path d="M515.903 409.241H475.792V413.564H546.332V409.241H529.389H515.903Z" fill="#DEBC7D"/>
<path d="M506.222 431.217H475.792V435.54H506.222V431.217Z" fill="#DEBC7D"/>
<path d="M515.904 435.54H546.333V431.217H515.904V435.54Z" fill="#DEBC7D"/>
<path d="M515.903 453.192H475.792V457.515H546.332V453.192H529.389H515.903Z" fill="#DEBC7D"/>
<path d="M475.792 479.49H506.222V475.167H475.792V479.49Z" fill="#DEBC7D"/>
<path d="M515.904 479.49H546.333V475.167H515.904V479.49Z" fill="#DEBC7D"/>
<path d="M642.115 305.018H629.919V248.931H642.115V305.018ZM629.919 494.62V433.378H642.115V494.62H629.919ZM556.36 433.378H565.496V494.62H556.36V433.378ZM565.496 248.931V305.018H556.36V248.931H565.496ZM614.85 305.018V248.931H625.77V305.018H614.85ZM625.77 367.035H614.85V309.341H625.77V367.035ZM629.919 367.035V309.341H642.115V367.035H629.919ZM629.919 371.358H642.115V429.055H629.919V371.358ZM614.85 429.055V371.358H625.77V429.055H614.85ZM614.85 433.378H625.77V494.62H614.85V433.378ZM599.784 433.378H610.7V494.62H599.784V433.378ZM584.715 433.378H595.635V494.62H584.715V433.378ZM580.565 433.378V494.62H569.645V433.378H580.565ZM569.645 371.358H580.565V429.055H569.645V371.358ZM556.36 371.358H565.496V429.055H556.36V371.358ZM580.565 309.341V367.035H569.645V309.341H580.565ZM595.635 305.018H584.715V248.931H595.635V305.018ZM599.784 305.018V248.931H610.7V305.018H599.784ZM599.784 367.035V309.341H610.7V367.035H599.784ZM599.784 371.358H610.7V429.055H599.784V371.358ZM584.715 367.035V309.341H595.635V367.035H584.715ZM595.635 371.358V429.055H584.715V371.358H595.635ZM580.565 248.931V305.018H569.645V248.931H580.565ZM556.36 309.341H565.496V367.035H556.36V309.341ZM556.36 241.366H642.115V244.608H556.36V241.366ZM552.211 237.043V498.943H646.264V237.043H552.211Z" fill="#DEBC7D"/>
<path d="M671.832 418.608H653.872V422.931H671.832V418.608Z" fill="#DEBC7D"/>
<path d="M671.832 437.341H653.872V441.664H671.832V437.341Z" fill="#DEBC7D"/>
<path d="M671.832 456.074H653.872V460.397H671.832V456.074Z" fill="#DEBC7D"/>
<path d="M671.832 474.807H653.872V479.13H671.832V474.807Z" fill="#DEBC7D"/>
<path d="M780.774 494.62H747.925V403.117H780.774V494.62ZM738.315 494.62V194.174H748.271V398.794H743.775V494.62H738.315ZM679.093 398.794V194.174H688.934V494.62H683.263V398.794H679.093ZM679.114 494.62H646.264V403.117H679.114V494.62ZM723.236 194.174H734.166V494.62H723.236V194.174ZM708.16 194.174H719.086V494.62H708.16V194.174ZM704.01 194.174V494.62H693.083V194.174H704.01ZM664.926 173.64H762.437V398.794H752.42V189.851H674.944V398.794H664.926V173.64ZM681.534 118.882H700.898V166.435H693.291V124.815H689.141V166.435H681.534V118.882ZM693.291 69.5207L713.692 40.7441L734.093 69.5207V114.559H728.907V71.3003L713.692 49.8403L698.478 71.3003V114.559H693.291V69.5207ZM745.85 166.435H738.243V124.815H734.093V166.435H726.486V118.882H745.85V166.435ZM702.627 114.559V72.7233L713.692 57.1137L724.757 72.7233V114.559H722.337V166.435H705.047V114.559H702.627ZM766.587 398.794V169.317H749.999V114.559H738.243V68.094L715.767 36.3922V1.43126e-05H711.617V36.3922L689.141 68.094V114.559H677.385V169.317H660.777V398.794H642.115V498.943H681.188H683.263H743.775H745.85H784.924V398.794H766.587Z" fill="#DEBC7D"/>
<path d="M773.492 418.608H755.532V422.931H773.492V418.608Z" fill="#DEBC7D"/>
<path d="M773.492 437.341H755.532V441.664H773.492V437.341Z" fill="#DEBC7D"/>
<path d="M773.492 456.074H755.532V460.397H773.492V456.074Z" fill="#DEBC7D"/>
<path d="M773.492 474.807H755.532V479.13H773.492V474.807Z" fill="#DEBC7D"/>
<path d="M871.37 494.62H784.924V188.049H871.37V494.62ZM846.003 183.726H810.291C811.321 174.41 818.935 167.155 828.147 167.155C837.359 167.155 844.973 174.41 846.003 183.726ZM828.147 157.428C835.443 157.428 842.3 160.39 847.463 165.764C852.131 170.628 854.894 176.943 855.378 183.726H850.177C849.126 172.022 839.651 162.832 828.147 162.832C816.643 162.832 807.168 172.022 806.117 183.726H800.917C801.982 169.039 813.783 157.428 828.147 157.428ZM859.537 183.726C859.046 175.787 855.848 168.387 850.395 162.71C844.945 157.028 837.843 153.696 830.222 153.185V122.124H826.072V153.177C810.37 154.247 797.777 167.368 796.75 183.726H780.775V498.943H875.52V183.726H859.537Z" fill="#DEBC7D"/>
<path d="M860.65 207.143H795.989V211.466H860.65V207.143Z" fill="#DEBC7D"/>
<path d="M839.212 230.559H795.989V234.882H839.212V230.559Z" fill="#DEBC7D"/>
<path d="M860.65 253.975H795.989V258.298H860.65V253.975Z" fill="#DEBC7D"/>
<path d="M839.212 277.391H795.989V281.714H839.212V277.391Z" fill="#DEBC7D"/>
<path d="M860.65 300.807H795.989V305.13H860.65V300.807Z" fill="#DEBC7D"/>
<path d="M839.212 324.223H795.989V328.546H839.212V324.223Z" fill="#DEBC7D"/>
<path d="M860.65 347.639H795.989V351.962H860.65V347.639Z" fill="#DEBC7D"/>
<path d="M839.212 371.055H795.989V375.378H839.212V371.055Z" fill="#DEBC7D"/>
<path d="M860.65 394.471H795.989V398.794H860.65V394.471Z" fill="#DEBC7D"/>
<path d="M839.212 417.887H795.989V422.21H839.212V417.887Z" fill="#DEBC7D"/>
<path d="M860.65 441.303H795.989V445.626H860.65V441.303Z" fill="#DEBC7D"/>
<path d="M839.212 464.36H795.989V468.683H839.212V464.36Z" fill="#DEBC7D"/>
<path d="M848.202 234.882H860.651V230.559H848.202V234.882Z" fill="#DEBC7D"/>
<path d="M848.202 281.714H860.651V277.391H848.202V281.714Z" fill="#DEBC7D"/>
<path d="M848.202 328.546H860.651V324.223H848.202V328.546Z" fill="#DEBC7D"/>
<path d="M848.202 375.378H860.651V371.055H848.202V375.378Z" fill="#DEBC7D"/>
<path d="M848.202 422.931H860.651V418.608H848.202V422.931Z" fill="#DEBC7D"/>
<path d="M848.202 468.683H860.651V464.36H848.202V468.683Z" fill="#DEBC7D"/>
<path d="M961.62 494.62H948.113V268.024H961.62V494.62ZM875.519 268.024H889.015V494.62H875.519V268.024ZM929.797 268.024H943.964V494.62H929.797V268.024ZM911.481 268.024H925.648V494.62H911.481V268.024ZM907.331 268.024V494.62H893.165V268.024H907.331ZM875.519 258.298H961.62V263.702H875.519V258.298ZM871.37 253.975V498.943H965.769V253.975H871.37Z" fill="#DEBC7D"/>
<path d="M1072.96 494.62H965.769V427.254H1072.96V494.62ZM979.946 224.074H1058.79V422.931H979.946V224.074ZM1001.38 192.733H1037.35V219.751H1001.38V192.733ZM1062.93 422.931V219.751H1041.5V188.41H1026.41V172.804H1022.26V188.41H1016.25V141.577H1012.1V188.41H997.235V219.751H975.797V422.931H961.62V498.943H1077.11V422.931H1062.93Z" fill="#DEBC7D"/>
<path d="M977.872 447.067H1060.86V442.744H977.872V447.067Z" fill="#DEBC7D"/>
<path d="M977.872 463.279H1060.86V458.956H977.872V463.279Z" fill="#DEBC7D"/>
<path d="M977.872 479.49H1060.86V475.167H977.872V479.49Z" fill="#DEBC7D"/>
<path d="M1004.5 241.006H986.516V245.329H1004.5V241.006Z" fill="#DEBC7D"/>
<path d="M1028.36 241.006H1010.38V245.329H1028.36V241.006Z" fill="#DEBC7D"/>
<path d="M1034.23 245.329H1052.22V241.006H1034.23V245.329Z" fill="#DEBC7D"/>
<path d="M1034.23 259.018H986.516V263.341H1052.22V259.018H1041.5H1034.23Z" fill="#DEBC7D"/>
<path d="M1004.5 277.031H986.516V281.354H1004.5V277.031Z" fill="#DEBC7D"/>
<path d="M1028.36 277.031H1010.38V281.354H1028.36V277.031Z" fill="#DEBC7D"/>
<path d="M1034.23 281.354H1052.22V277.031H1034.23V281.354Z" fill="#DEBC7D"/>
<path d="M1034.23 295.043H986.516V299.366H1052.22V295.043H1041.5H1034.23Z" fill="#DEBC7D"/>
<path d="M1004.5 313.055H986.516V317.378H1004.5V313.055Z" fill="#DEBC7D"/>
<path d="M1028.36 313.055H1010.38V317.378H1028.36V313.055Z" fill="#DEBC7D"/>
<path d="M1034.23 317.378H1052.22V313.055H1034.23V317.378Z" fill="#DEBC7D"/>
<path d="M1034.23 331.068H986.516V335.391H1052.22V331.068H1041.5H1034.23Z" fill="#DEBC7D"/>
<path d="M1004.5 349.08H986.516V353.403H1004.5V349.08Z" fill="#DEBC7D"/>
<path d="M1028.36 349.08H1010.38V353.403H1028.36V349.08Z" fill="#DEBC7D"/>
<path d="M1034.23 353.403H1052.22V349.08H1034.23V353.403Z" fill="#DEBC7D"/>
<path d="M1034.23 367.093H986.516V371.416H1052.22V367.093H1039.77H1034.23Z" fill="#DEBC7D"/>
<path d="M1004.5 385.105H986.516V389.428H1004.5V385.105Z" fill="#DEBC7D"/>
<path d="M1028.36 385.105H1010.38V389.428H1028.36V385.105Z" fill="#DEBC7D"/>
<path d="M1034.23 389.428H1052.22V385.105H1034.23V389.428Z" fill="#DEBC7D"/>
<path d="M1034.23 403.117H986.516V407.44H1052.22V403.117H1040.46H1034.23Z" fill="#DEBC7D"/>
<path d="M1077.11 494.62V175.945L1153.88 128.097V494.62H1077.11ZM1153.88 115.849V123.061L1077.11 170.909V163.697L1153.88 115.849ZM1153.88 49.354V110.812L1141.84 118.313V92.944H1137.69V120.899L1072.96 161.247V498.943H1158.03V112.037V108.226V49.354H1153.88Z" fill="#DEBC7D"/>
<path d="M1088.52 189.49H1111.34V185.167H1088.52V189.49Z" fill="#DEBC7D"/>
<path d="M1119.64 189.49H1142.46V185.167H1119.64V189.49Z" fill="#DEBC7D"/>
<path d="M1119.64 168.236H1142.46V163.913H1119.64V168.236Z" fill="#DEBC7D"/>
<path d="M1088.52 208.583H1111.34V204.261H1088.52V208.583Z" fill="#DEBC7D"/>
<path d="M1119.64 208.583H1142.46V204.261H1119.64V208.583Z" fill="#DEBC7D"/>
<path d="M1088.52 227.677H1111.34V223.354H1088.52V227.677Z" fill="#DEBC7D"/>
<path d="M1119.64 227.677H1142.46V223.354H1119.64V227.677Z" fill="#DEBC7D"/>
<path d="M1088.52 246.77H1111.34V242.447H1088.52V246.77Z" fill="#DEBC7D"/>
<path d="M1119.64 246.77H1142.46V242.447H1119.64V246.77Z" fill="#DEBC7D"/>
<path d="M1088.52 265.863H1111.34V261.54H1088.52V265.863Z" fill="#DEBC7D"/>
<path d="M1119.64 265.863H1142.46V261.54H1119.64V265.863Z" fill="#DEBC7D"/>
<path d="M1088.52 284.956H1111.34V280.633H1088.52V284.956Z" fill="#DEBC7D"/>
<path d="M1119.64 284.956H1142.46V280.633H1119.64V284.956Z" fill="#DEBC7D"/>
<path d="M1088.52 304.049H1111.34V299.726H1088.52V304.049Z" fill="#DEBC7D"/>
<path d="M1119.64 304.049H1142.46V299.726H1119.64V304.049Z" fill="#DEBC7D"/>
<path d="M1088.52 323.143H1111.34V318.82H1088.52V323.143Z" fill="#DEBC7D"/>
<path d="M1119.64 323.143H1142.46V318.82H1119.64V323.143Z" fill="#DEBC7D"/>
<path d="M1088.52 342.236H1111.34V337.913H1088.52V342.236Z" fill="#DEBC7D"/>
<path d="M1119.64 342.236H1142.46V337.913H1119.64V342.236Z" fill="#DEBC7D"/>
<path d="M1088.52 361.329H1111.34V357.006H1088.52V361.329Z" fill="#DEBC7D"/>
<path d="M1119.64 361.329H1142.46V357.006H1119.64V361.329Z" fill="#DEBC7D"/>
<path d="M1088.52 380.422H1111.34V376.099H1088.52V380.422Z" fill="#DEBC7D"/>
<path d="M1119.64 380.422H1142.46V376.099H1119.64V380.422Z" fill="#DEBC7D"/>
<path d="M1088.52 399.515H1111.34V395.192H1088.52V399.515Z" fill="#DEBC7D"/>
<path d="M1119.64 399.515H1142.46V395.192H1119.64V399.515Z" fill="#DEBC7D"/>
<path d="M1088.52 418.608H1111.34V414.285H1088.52V418.608Z" fill="#DEBC7D"/>
<path d="M1119.64 418.608H1142.46V414.285H1119.64V418.608Z" fill="#DEBC7D"/>
<path d="M1088.52 437.702H1111.34V433.379H1088.52V437.702Z" fill="#DEBC7D"/>
<path d="M1119.64 437.702H1142.46V433.379H1119.64V437.702Z" fill="#DEBC7D"/>
<path d="M1088.52 456.794H1111.34V452.471H1088.52V456.794Z" fill="#DEBC7D"/>
<path d="M1119.64 456.794H1142.46V452.471H1119.64V456.794Z" fill="#DEBC7D"/>
<path d="M1088.52 475.888H1111.34V471.565H1088.52V475.888Z" fill="#DEBC7D"/>
<path d="M1119.64 475.888H1142.46V471.565H1119.64V475.888Z" fill="#DEBC7D"/>
<path d="M1286.01 494.62V451.113L1293.23 456.146V494.62H1286.01ZM1261.76 434.185L1269.71 439.737V494.62H1261.76V434.185ZM1257.61 494.62H1193.64V260.099H1257.61V494.62ZM1181.54 494.62V439.737L1189.49 434.185V494.62H1181.54ZM1158.03 456.146L1165.24 451.113V494.62H1158.03V456.146ZM1189.49 273.356L1158.03 295.317V283.947L1189.49 261.987V273.356ZM1189.49 325.232L1181.54 330.783V284.236H1181.36L1189.49 278.558V325.232ZM1189.49 377.108L1181.54 382.659V335.985L1189.49 330.434V377.108ZM1158.03 404.27L1165.24 399.238V445.911L1158.03 450.944V404.27ZM1158.03 352.395L1165.24 347.362V394.036L1158.03 399.068V352.395ZM1177.39 338.882V385.552L1169.39 391.139V344.465L1177.39 338.882ZM1169.39 339.263V292.644H1169.31L1177.39 287.006V333.676L1169.39 339.263ZM1158.03 300.519L1165.24 295.486V342.16L1158.03 347.193V300.519ZM1177.39 442.633V494.62H1169.39V448.217L1177.39 442.633ZM1169.39 443.015V396.341L1177.39 390.757V437.427L1169.39 443.015ZM1189.49 428.983L1181.54 434.535V387.861L1189.49 382.31V428.983ZM1227.7 216.149H1237.21V255.776H1227.7V216.149ZM1214.04 255.776V216.149H1223.55V255.776H1214.04ZM1206.09 204.981H1245.16V255.776H1241.36V211.826H1209.89V255.776H1206.09V204.981ZM1261.76 273.356V261.987L1293.23 283.947V295.317L1261.76 273.356ZM1286.01 342.16V295.486L1293.23 300.519V347.193L1286.01 342.16ZM1286.01 394.036V347.362L1293.23 352.395V399.068L1286.01 394.036ZM1286.01 399.238L1293.23 404.27V450.944L1286.01 445.911V399.238ZM1261.76 382.31L1269.71 387.861V434.535L1261.76 428.983V382.31ZM1269.71 284.236V330.783L1261.76 325.232V278.558L1269.89 284.236H1269.71ZM1273.86 338.882L1281.86 344.465V391.139L1273.86 385.552V338.882ZM1261.76 330.434L1269.71 335.985V382.659L1261.76 377.108V330.434ZM1281.86 339.263L1273.86 333.676V287.006L1281.94 292.644H1281.86V339.263ZM1281.86 448.217V494.62H1273.86V442.633L1281.86 448.217ZM1273.86 437.427V390.757L1281.86 396.341V443.015L1273.86 437.427ZM1295.3 282.795L1296.46 281.001L1261.76 256.785V255.776H1249.31V200.658H1201.94V255.776H1189.49V256.785L1154.8 281.001L1155.95 282.795H1153.88V498.943H1189.49H1193.64H1257.61H1261.76H1297.38V282.795H1295.3Z" fill="#DEBC7D"/>
<path d="M1247.58 271.267V483.453H1241.36V271.267H1247.58ZM1232.37 483.453V271.267H1237.21V483.453H1232.37ZM1223.03 483.453V271.267H1228.22V483.453H1223.03ZM1214.04 483.453V271.267H1218.88V483.453H1214.04ZM1203.67 483.453V271.267H1209.89V483.453H1203.67ZM1232.37 266.944H1199.52V487.776H1251.73V266.944H1241.36H1232.37Z" fill="#DEBC7D"/>
<path d="M1395.92 494.62H1358.58V345.838H1395.92V494.62ZM1297.38 494.62V135.093H1375.18V341.515H1354.43V349.34H1328.15V353.663H1354.43V367.572H1308.1V371.895H1354.43V385.804H1328.15V390.127H1354.43V404.04H1308.1V408.363H1354.43V422.272H1328.15V426.595H1354.43V440.504H1308.1V444.827H1354.43V458.736H1328.15V463.059H1354.43V476.968H1308.1V481.291H1354.43V494.62H1297.38ZM1379.33 341.515V130.77H1293.23V498.943H1354.43H1377.25H1400.07V341.515H1379.33Z" fill="#DEBC7D"/>
<path d="M1373.1 360.968H1368.95V482.372H1373.1V360.968Z" fill="#DEBC7D"/>
<path d="M1385.55 360.968H1381.4V482.372H1385.55V360.968Z" fill="#DEBC7D"/>
<path d="M1364.46 148.782H1308.1V153.105H1364.46V148.782Z" fill="#DEBC7D"/>
<path d="M1328.15 171.337H1364.46V167.014H1328.15V171.337Z" fill="#DEBC7D"/>
<path d="M1364.46 185.247H1308.1V189.57H1364.46V185.247Z" fill="#DEBC7D"/>
<path d="M1328.15 207.802H1364.46V203.479H1328.15V207.802Z" fill="#DEBC7D"/>
<path d="M1364.46 221.711H1308.1V226.034H1364.46V221.711Z" fill="#DEBC7D"/>
<path d="M1328.15 244.27H1364.46V239.947H1328.15V244.27Z" fill="#DEBC7D"/>
<path d="M1364.46 258.179H1308.1V262.502H1364.46V258.179Z" fill="#DEBC7D"/>
<path d="M1328.15 280.734H1364.46V276.411H1328.15V280.734Z" fill="#DEBC7D"/>
<path d="M1364.46 294.643H1308.1V298.966H1364.46V294.643Z" fill="#DEBC7D"/>
<path d="M1328.15 317.198H1364.46V312.875H1328.15V317.198Z" fill="#DEBC7D"/>
<path d="M1364.46 331.107H1308.1V335.43H1364.46V331.107Z" fill="#DEBC7D"/>
<path d="M1319.07 167.014H1308.1V171.337H1319.07V167.014Z" fill="#DEBC7D"/>
<path d="M1319.07 203.399H1308.1V207.722H1319.07V203.399Z" fill="#DEBC7D"/>
<path d="M1319.07 239.784H1308.1V244.107H1319.07V239.784Z" fill="#DEBC7D"/>
<path d="M1319.07 276.53H1308.1V280.853H1319.07V276.53Z" fill="#DEBC7D"/>
<path d="M1319.07 312.554H1308.1V316.877H1319.07V312.554Z" fill="#DEBC7D"/>
<path d="M1319.07 348.94H1308.1V353.263H1319.07V348.94Z" fill="#DEBC7D"/>
<path d="M1319.07 385.685H1308.1V390.008H1319.07V385.685Z" fill="#DEBC7D"/>
<path d="M1319.07 422.43H1308.1V426.753H1319.07V422.43Z" fill="#DEBC7D"/>
<path d="M1319.07 458.455H1308.1V462.778H1319.07V458.455Z" fill="#DEBC7D"/>
<path d="M106.156 494.496H84.0256V211.702H106.156V494.496ZM79.8762 207.379H30.429V184.323H79.8762V207.379ZM79.8762 220.708H30.429V211.702H79.8762V220.708ZM79.8762 494.496H66.1589V225.031H79.8762V494.496ZM62.0095 494.496H48.2957V225.031H62.0095V494.496ZM44.1463 494.496H30.429V225.031H44.1463V494.496ZM26.2796 494.496H4.14941V211.702H26.2796V494.496ZM84.0256 207.379V180H26.2796V207.379H0V498.819H26.2796H30.429H79.8762H84.0256H110.305V207.379H84.0256Z" fill="#DEBC7D"/>
<path d="M49.257 193.69H38.3994V198.013H49.257V193.69Z" fill="#DEBC7D"/>
<path d="M71.9233 193.69H54.6514V198.013H71.9233V193.69Z" fill="#DEBC7D"/>
<path d="M195.368 494.496H110.305V420.646H195.368V494.496ZM139.697 291.317V276.186H165.976V291.317H139.697ZM139.697 309.149V295.64H165.976V309.149H139.697ZM139.697 326.981V313.472H165.976V326.981H139.697ZM139.697 344.813V331.304H165.976V344.813H139.697ZM139.697 362.646V349.136H165.976V362.646H139.697ZM139.697 380.478V366.969H165.976V380.478H139.697ZM165.976 402.633V416.323H139.697V402.633H165.976ZM139.697 398.31V384.801H165.976V398.31H139.697ZM127.594 267.944L152.837 235.32L178.079 267.944V416.323H170.126V276.186H170.164V271.863H170.126H137.622H135.547V416.323H127.594V267.944ZM182.228 416.323V266.416L154.911 231.112V195.851H150.762V231.112L123.445 266.416V416.323H106.156V498.819H199.518V416.323H182.228Z" fill="#DEBC7D"/>
<path d="M137.623 431.813H118.95V436.136H137.623V431.813Z" fill="#DEBC7D"/>
<path d="M162.173 431.813H143.5V436.136H162.173V431.813Z" fill="#DEBC7D"/>
<path d="M168.051 436.136H186.724V431.813H168.051V436.136Z" fill="#DEBC7D"/>
<path d="M168.052 448.385H118.95V452.708H186.724V448.385H174.621H168.052Z" fill="#DEBC7D"/>
<path d="M137.623 464.956H118.95V469.279H137.623V464.956Z" fill="#DEBC7D"/>
<path d="M162.173 464.956H143.5V469.279H162.173V464.956Z" fill="#DEBC7D"/>
<path d="M168.051 469.279H186.724V464.956H168.051V469.279Z" fill="#DEBC7D"/>
<path d="M168.052 481.528H118.95V485.851H186.724V481.528H172.201H168.052Z" fill="#DEBC7D"/>
<path d="M263.833 338.869H199.518V323.739H263.833V338.869ZM263.833 380.478H245.161V343.192H263.833V380.478ZM263.833 448.745H245.161V384.801H263.833V448.745ZM263.833 494.496H245.161V453.068H263.833V494.496ZM241.012 380.478H222.339V343.192H241.012V380.478ZM241.012 448.745H222.339V384.801H241.012V448.745ZM241.012 494.496H222.339V453.068H241.012V494.496ZM218.19 380.478H199.518V343.192H218.19V380.478ZM218.19 448.745H199.518V384.801H218.19V448.745ZM218.19 494.496H199.518V453.068H218.19V494.496ZM217.498 305.006H245.853V319.416H217.498V305.006ZM250.002 319.416V265.018H245.853V300.683H233.75V283.931H229.601V300.683H213.349V319.416H195.368V343.192V498.819H267.983V343.192V319.416H250.002Z" fill="#DEBC7D"/>
</svg>
